<svg width="24" height="18" viewBox="0 0 24 18" fill="none" xmlns="http://www.w3.org/2000/svg">
<path d="M0.75 0V15.75H3.11719C3.45117 17.0391 4.61133 18 6 18C7.38867 18 8.54883 17.0391 8.88281 15.75H15.1172C15.4512 17.0391 16.6113 18 18 18C19.3887 18 20.5488 17.0391 20.8828 15.75H23.25V7.94531L23.0391 7.71094L18.5391 3.21094L18.3047 3H14.25V0H0.75ZM2.25 1.5H12.75V14.25H8.88281C8.54883 12.9609 7.38867 12 6 12C4.61133 12 3.45117 12.9609 3.11719 14.25H2.25V1.5ZM14.25 4.5H17.6719L21.75 8.57812V14.25H20.8828C20.5488 12.9609 19.3887 12 18 12C16.6113 12 15.4512 12.9609 15.1172 14.25H14.25V4.5ZM6 13.5C6.83789 13.5 7.5 14.1621 7.5 15C7.5 15.8379 6.83789 16.5 6 16.5C5.16211 16.5 4.5 15.8379 4.5 15C4.5 14.1621 5.16211 13.5 6 13.5ZM18 13.5C18.8379 13.5 19.5 14.1621 19.5 15C19.5 15.8379 18.8379 16.5 18 16.5C17.1621 16.5 16.5 15.8379 16.5 15C16.5 14.1621 17.1621 13.5 18 13.5Z" fill="black"/>
</svg>
