<svg width="21" height="22" viewBox="0 0 21 22" fill="none" xmlns="http://www.w3.org/2000/svg">
<path d="M10.6 0C6.74451 0 3.59998 3.14453 3.59998 7C3.59998 9.41016 4.83044 11.5508 6.69373 12.8125C3.12732 14.3438 0.599976 17.8828 0.599976 22H2.59998C2.59998 17.5703 6.17029 14 10.6 14C15.0297 14 18.6 17.5703 18.6 22H20.6C20.6 17.8828 18.0726 14.3438 14.5062 12.8125C16.3695 11.5508 17.6 9.41016 17.6 7C17.6 3.14453 14.4554 0 10.6 0ZM10.6 2C13.3734 2 15.6 4.22656 15.6 7C15.6 9.77344 13.3734 12 10.6 12C7.82654 12 5.59998 9.77344 5.59998 7C5.59998 4.22656 7.82654 2 10.6 2Z" fill="white"/>
</svg>
