<svg width="27" height="24" viewBox="0 0 27 24" fill="none" xmlns="http://www.w3.org/2000/svg">
<path d="M0.799988 0V18H5.79999V23.0781L12.1516 18H26.8V0H0.799988ZM2.79999 2H24.8V16H11.4484L7.79999 18.918V16H2.79999V2ZM7.79999 7C6.69452 7 5.79999 7.89453 5.79999 9C5.79999 10.1055 6.69452 11 7.79999 11C8.90546 11 9.79999 10.1055 9.79999 9C9.79999 7.89453 8.90546 7 7.79999 7ZM13.8 7C12.6945 7 11.8 7.89453 11.8 9C11.8 10.1055 12.6945 11 13.8 11C14.9055 11 15.8 10.1055 15.8 9C15.8 7.89453 14.9055 7 13.8 7ZM19.8 7C18.6945 7 17.8 7.89453 17.8 9C17.8 10.1055 18.6945 11 19.8 11C20.9055 11 21.8 10.1055 21.8 9C21.8 7.89453 20.9055 7 19.8 7Z" fill="white"/>
</svg>
