<svg width="19" height="28" viewBox="0 0 19 28" fill="none" xmlns="http://www.w3.org/2000/svg">
<path d="M9.20001 0.625C4.24298 0.625 0.200012 4.66797 0.200012 9.625C0.200012 11.0312 0.770325 12.6445 1.54376 14.4062C2.3172 16.168 3.31329 18.0391 4.32501 19.7812C6.34845 23.2695 8.38751 26.1875 8.38751 26.1875L9.20001 27.375L10.0125 26.1875C10.0125 26.1875 12.0516 23.2695 14.075 19.7812C15.0867 18.0391 16.0828 16.168 16.8563 14.4062C17.6297 12.6445 18.2 11.0312 18.2 9.625C18.2 4.66797 14.157 0.625 9.20001 0.625ZM9.20001 2.625C13.0789 2.625 16.2 5.74609 16.2 9.625C16.2 10.4258 15.7703 11.9414 15.0438 13.5938C14.3172 15.2461 13.3133 17.0781 12.325 18.7812C10.7547 21.4922 9.77814 22.9258 9.20001 23.7812C8.62189 22.9258 7.64533 21.4922 6.07501 18.7812C5.08673 17.0781 4.08283 15.2461 3.35626 13.5938C2.6297 11.9414 2.20001 10.4258 2.20001 9.625C2.20001 5.74609 5.32111 2.625 9.20001 2.625ZM9.20001 7.625C8.09454 7.625 7.20001 8.51953 7.20001 9.625C7.20001 10.7305 8.09454 11.625 9.20001 11.625C10.3055 11.625 11.2 10.7305 11.2 9.625C11.2 8.51953 10.3055 7.625 9.20001 7.625Z" fill="white"/>
</svg>
