<svg width="177" height="48" viewBox="0 0 177 48" fill="none" xmlns="http://www.w3.org/2000/svg">
<g clip-path="url(#clip0_4_2215)">
<path fill-rule="evenodd" clip-rule="evenodd" d="M20.813 44.2546C21.2158 42.9182 21.6644 41.6092 22.0031 40.2682C22.9552 36.4546 22.3006 32.8819 20.3599 29.4773C18.9501 27.0001 17.5861 24.4773 16.2954 21.9546C15.4276 20.2651 14.8329 18.4505 14.5331 16.5773C14.2081 14.5467 14.5771 12.4664 15.5813 10.6682C16.8508 8.46145 18.5315 6.5147 20.5338 4.93188C20.1677 5.66825 19.7878 6.40007 19.4353 7.14552C18.6034 8.81565 18.1192 10.6353 18.0118 12.4955C17.9111 15.2228 19.0508 17.4955 20.9549 19.3955C23.3213 21.7637 26.1226 23.5273 28.9833 25.2319C31.3177 26.6228 33.6566 28.0228 35.9269 29.5273C36.7679 30.1213 37.504 30.8493 38.1057 31.6819C39.1813 33.0955 38.9387 34.4092 37.5244 35.4819C36.11 36.5546 34.5217 37.1092 32.906 37.6728C31.1255 38.2955 29.3449 38.9137 27.5369 39.4364C25.1637 40.1163 23.067 41.5225 21.5454 43.4546C21.3394 43.7137 21.1197 43.9592 20.9 44.2092C20.8736 44.2299 20.8443 44.2467 20.813 44.2592" fill="#FFFDFF"/>
<path fill-rule="evenodd" clip-rule="evenodd" d="M17.3248 25.8501C18.5835 28.3319 19.6134 30.8274 20.0025 33.5365C20.3746 35.6348 20.1495 37.7946 19.3525 39.7728C19.0642 40.4546 18.6842 41.0637 18.3089 41.7501C16.7243 40.9169 15.2716 39.8571 13.9972 38.6046C13.055 37.7144 12.345 36.6099 11.9283 35.3865C11.315 33.3956 11.7956 31.5819 12.9444 29.9046C14.1331 28.2965 15.6122 26.9217 17.3065 25.8501" fill="#FFFDFD"/>
<path fill-rule="evenodd" clip-rule="evenodd" d="M23.5959 20.3683L30.6174 14.0046C29.2584 16.9632 28.4905 20.1555 28.3562 23.4046C26.6393 22.6095 25.0381 21.5882 23.5959 20.3683" fill="#FFFBFB"/>
<path fill-rule="evenodd" clip-rule="evenodd" d="M47.9832 33.1819L47.9512 33.9046C47.9043 34.6301 47.7987 35.3506 47.6354 36.0592C46.8398 39.4863 44.8879 42.5402 42.1037 44.7139C39.3196 46.8876 35.8706 48.0503 32.3292 48.0092C26.7908 48.0092 21.2524 48.0092 15.714 48.0092C14.8562 48.012 13.9995 47.9512 13.1508 47.8274C9.46884 47.269 6.11281 45.4117 3.69764 42.5959C1.28248 39.78 -0.0300612 36.1942 0.000522667 32.4956C0.000522667 26.8743 0.000522667 21.2531 0.000522667 15.6319C-0.00203846 14.9546 0.0346397 14.2778 0.110375 13.6046C0.49125 10.0594 2.13769 6.76682 4.75165 4.32283C6.2098 2.91054 7.93667 1.8009 9.83144 1.0587C11.7262 0.316509 13.7509 -0.0433641 15.7873 9.77974e-05C21.3073 9.77974e-05 26.8274 9.77974e-05 32.3521 9.77974e-05C33.1674 0.00955 33.981 0.0748566 34.7872 0.195552C38.325 0.713952 41.5729 2.43314 43.9786 5.06083C46.3843 7.68852 47.7994 11.0625 47.9832 14.6092C47.9832 14.6774 47.9832 14.7456 47.9832 14.8183C47.9832 20.8971 47.9832 26.9743 47.9832 33.0501M20.813 44.2546C20.8442 44.2421 20.8735 44.2253 20.9 44.2046C21.1151 43.9546 21.3577 43.7092 21.5454 43.4501C23.0665 41.5204 25.1614 40.116 27.5323 39.4365C29.3632 38.9137 31.1254 38.2956 32.9014 37.6728C34.5217 37.1137 36.1603 36.541 37.5335 35.4819C38.9067 34.4228 39.1859 33.0956 38.1148 31.6819C37.5087 30.8552 36.7695 30.1334 35.9269 29.5456C33.6383 28.041 31.3222 26.641 28.9833 25.2501C26.1271 23.5456 23.3213 21.7819 20.9549 19.4137C19.0554 17.5092 17.9156 15.2592 18.0118 12.5183C18.1192 10.658 18.6033 8.83841 19.4353 7.16828C19.7877 6.42283 20.1676 5.69555 20.5338 4.95464C18.5253 6.53433 16.8382 8.47963 15.563 10.6865C14.5588 12.4846 14.1898 14.5649 14.5148 16.5956C14.8222 18.4634 15.423 20.2718 16.2953 21.9546C17.5861 24.4956 18.9501 27.0046 20.3599 29.4774C22.296 32.8774 22.9506 36.4546 22.0031 40.2683C21.6689 41.6319 21.2158 42.9183 20.813 44.2546M17.3252 25.8501C15.6307 26.9215 14.1516 28.2964 12.9631 29.9046C11.8097 31.5774 11.3336 33.3956 11.947 35.3865C12.3635 36.61 13.0735 37.7145 14.0159 38.6046C15.2847 39.8557 16.7312 40.9154 18.3093 41.7501C18.6663 41.0637 19.0508 40.441 19.3346 39.7774C20.1382 37.801 20.3696 35.641 20.0028 33.541C19.6046 30.8137 18.5839 28.3365 17.3252 25.8546M23.5959 20.3728C25.0381 21.5927 26.6393 22.6141 28.3562 23.4092C28.4905 20.1601 29.2584 16.9677 30.6174 14.0092L23.5959 20.3728Z" fill="#D1111C"/>
<path d="M67.8925 6.81828V7.69556C67.8925 7.92822 67.7995 8.15136 67.6338 8.31588C67.4681 8.4804 67.2434 8.57283 67.0091 8.57283H58.8434V11.3001H65.874C66.1058 11.308 66.3258 11.403 66.4898 11.5658C66.6538 11.7287 66.7494 11.9472 66.7574 12.1774V13.0546C66.7494 13.2848 66.6538 13.5034 66.4898 13.6662C66.3258 13.829 66.1058 13.924 65.874 13.9319H58.8434V16.6592H66.9908C67.1046 16.6586 67.2174 16.6804 67.3226 16.7234C67.4278 16.7663 67.5234 16.8296 67.6039 16.9095C67.6844 16.9894 67.748 17.0843 67.7913 17.1888C67.8346 17.2933 67.8565 17.4053 67.8559 17.5183V18.4274C67.8559 18.5426 67.8331 18.6567 67.7887 18.7631C67.7443 18.8695 67.6792 18.9662 67.5972 19.0477C67.5152 19.1292 67.4178 19.1938 67.3106 19.2379C67.2034 19.282 67.0885 19.3046 66.9725 19.3046H56.1887C56.0699 19.3047 55.9524 19.281 55.843 19.235C55.7337 19.1889 55.6349 19.1214 55.5524 19.0366C55.4699 18.9517 55.4056 18.8512 55.3631 18.7411C55.3206 18.6309 55.301 18.5134 55.3053 18.3956V6.79101C55.3041 6.67526 55.326 6.56042 55.3699 6.45318C55.4139 6.34595 55.4788 6.24846 55.561 6.16639C55.6432 6.08433 55.7411 6.01932 55.8488 5.97517C55.9566 5.93101 56.0721 5.90858 56.1887 5.90919H67.0091C67.1279 5.90911 67.2455 5.93282 67.3548 5.97888C67.4641 6.02494 67.5629 6.09242 67.6454 6.17728C67.7279 6.26215 67.7923 6.36265 67.8347 6.47279C67.8772 6.58292 67.8969 6.70043 67.8925 6.81828" fill="white"/>
<path d="M74.0231 19.4775C70.8694 19.4775 68.8738 18.7911 68.8738 16.8048C68.8725 16.7292 68.8866 16.6542 68.9152 16.5841C68.9437 16.5141 68.9861 16.4505 69.0399 16.397C69.0937 16.3436 69.1578 16.3015 69.2284 16.2731C69.2989 16.2448 69.3744 16.2308 69.4505 16.232H70.8557C71.0616 16.2251 71.2662 16.2663 71.453 16.3524C71.6399 16.4384 71.8037 16.5669 71.9313 16.7275C72.1809 16.9551 72.4754 17.1287 72.7961 17.2375C73.1167 17.3462 73.4566 17.3877 73.7943 17.3593C75.41 17.3593 75.9455 16.9957 75.9455 16.4502C75.9455 14.8684 68.8555 15.7457 68.8555 11.9048C68.8555 9.7502 71.0251 8.89111 73.7348 8.89111C76.8884 8.89111 78.8841 9.57748 78.8841 11.5638C78.8853 11.6394 78.8713 11.7144 78.8427 11.7845C78.8142 11.8545 78.7717 11.9181 78.7179 11.9716C78.6641 12.025 78.6001 12.0671 78.5295 12.0955C78.459 12.1238 78.3835 12.1378 78.3074 12.1366H76.8976C76.6917 12.1435 76.4871 12.1023 76.3003 12.0162C76.1134 11.9301 75.9496 11.8017 75.822 11.6411C75.5725 11.4133 75.2781 11.2395 74.9574 11.1307C74.6367 11.022 74.2967 10.9806 73.959 11.0093C72.6317 11.0093 72.0961 11.3729 72.0961 11.9184C72.0961 13.5047 79.1862 12.5866 79.1862 16.4638C79.1862 18.6184 77.0166 19.4775 74.0185 19.4775" fill="white"/>
<path d="M91.9157 14.1728C91.9157 17.6819 89.8788 19.4774 86.8808 19.4774C85.9581 19.4793 85.0419 19.3256 84.1711 19.0228V21.8865C84.1723 21.962 84.1582 22.037 84.1297 22.1071C84.1012 22.1771 84.0587 22.2407 84.0049 22.2942C83.9511 22.3476 83.887 22.3897 83.8165 22.4181C83.746 22.4464 83.6704 22.4604 83.5944 22.4592H81.5026C81.4265 22.4604 81.351 22.4464 81.2804 22.4181C81.2099 22.3897 81.1458 22.3476 81.092 22.2942C81.0382 22.2407 80.9958 22.1771 80.9672 22.1071C80.9387 22.037 80.9246 21.962 80.9259 21.8865V9.6501C80.9265 9.57608 80.9417 9.5029 80.9708 9.43474C80.9999 9.36659 81.0422 9.30479 81.0953 9.25287C81.1485 9.20095 81.2114 9.15994 81.2805 9.13216C81.3495 9.10439 81.4235 9.09041 81.498 9.091H83.306C83.3821 9.08978 83.4576 9.10375 83.5282 9.1321C83.5987 9.16044 83.6628 9.20259 83.7166 9.25602C83.7704 9.30944 83.8128 9.37307 83.8413 9.44311C83.8699 9.51316 83.884 9.58818 83.8827 9.66373V9.9501C84.8361 9.25842 85.9885 8.89023 87.1691 8.9001C89.9155 8.9001 91.9157 10.6955 91.9157 14.1865M84.1711 11.991V16.8546C84.829 17.0749 85.5145 17.2034 86.2079 17.2365C87.9381 17.2365 88.5698 16.3001 88.5698 14.1819C88.5698 12.0637 87.9335 11.1501 86.4002 11.1501C85.5975 11.2388 84.8306 11.5281 84.1711 11.991" fill="white"/>
<path d="M101.614 10.8729C101.615 10.9485 101.601 11.0235 101.572 11.0935C101.544 11.1636 101.501 11.2272 101.447 11.2806C101.394 11.3341 101.33 11.3762 101.259 11.4045C101.189 11.4329 101.113 11.4469 101.037 11.4456H100.73C100.273 11.4456 99.7873 11.3865 99.2884 11.3865C98.3272 11.3865 97.5582 11.9411 96.8671 12.7502V18.7047C96.8683 18.7803 96.8542 18.8553 96.8257 18.9253C96.7971 18.9954 96.7547 19.059 96.7009 19.1124C96.6471 19.1659 96.583 19.208 96.5125 19.2364C96.442 19.2647 96.3664 19.2787 96.2903 19.2775H94.194C94.1179 19.2787 94.0424 19.2647 93.9718 19.2364C93.9013 19.208 93.8372 19.1659 93.7834 19.1124C93.7296 19.059 93.6872 18.9954 93.6586 18.9253C93.6301 18.8553 93.616 18.7803 93.6173 18.7047V9.65018C93.6177 9.57338 93.634 9.49749 93.665 9.42716C93.6961 9.35683 93.7413 9.29354 93.7979 9.24119C93.8545 9.18883 93.9212 9.14851 93.9941 9.1227C94.0669 9.09689 94.1443 9.08613 94.2215 9.09109H96.3178C96.3939 9.08986 96.4694 9.10384 96.54 9.13218C96.6105 9.16053 96.6746 9.20267 96.7284 9.2561C96.7822 9.30953 96.8246 9.37316 96.8532 9.4432C96.8817 9.51324 96.8958 9.58827 96.8945 9.66382V10.2547C98.066 9.30214 99.5522 8.81611 101.064 8.89109C101.212 8.89583 101.353 8.95792 101.456 9.0641C101.558 9.17027 101.615 9.3121 101.614 9.45927V10.8729Z" fill="white"/>
<path d="M102.989 6.81822C102.975 6.67462 102.994 6.52986 103.043 6.39422C103.092 6.25858 103.171 6.13539 103.274 6.03342C103.377 5.93144 103.501 5.85319 103.637 5.80421C103.774 5.75523 103.92 5.73673 104.064 5.75003H105.236C105.38 5.73744 105.525 5.75647 105.662 5.80577C105.798 5.85506 105.921 5.93342 106.023 6.03531C106.125 6.1372 106.204 6.26014 106.253 6.39542C106.302 6.5307 106.32 6.67503 106.307 6.81822V7.14094C106.316 7.28236 106.294 7.42406 106.243 7.55633C106.192 7.6886 106.113 7.80829 106.01 7.90719C105.908 8.00609 105.786 8.08184 105.651 8.12925C105.517 8.17667 105.374 8.19461 105.231 8.18185H104.06C103.917 8.19408 103.774 8.17542 103.639 8.12717C103.504 8.07892 103.382 8.00222 103.28 7.90239C103.178 7.80255 103.099 7.68195 103.049 7.54891C102.999 7.41588 102.978 7.27358 102.989 7.13185V6.81822ZM103.602 19.2955C103.526 19.2967 103.45 19.2827 103.38 19.2544C103.309 19.226 103.245 19.1839 103.191 19.1305C103.138 19.077 103.095 19.0134 103.067 18.9434C103.038 18.8733 103.024 18.7983 103.025 18.7228V9.87731C103.024 9.80176 103.038 9.72673 103.067 9.65669C103.095 9.58665 103.138 9.52302 103.191 9.46959C103.245 9.41616 103.309 9.37402 103.38 9.34567C103.45 9.31733 103.526 9.30335 103.602 9.30458H105.698C105.774 9.30335 105.85 9.31733 105.92 9.34567C105.991 9.37402 106.055 9.41616 106.109 9.46959C106.163 9.52302 106.205 9.58665 106.234 9.65669C106.262 9.72673 106.276 9.80176 106.275 9.87731V18.7137C106.276 18.7892 106.262 18.8642 106.234 18.9343C106.205 19.0043 106.163 19.068 106.109 19.1214C106.055 19.1748 105.991 19.217 105.92 19.2453C105.85 19.2737 105.774 19.2876 105.698 19.2864L103.602 19.2955Z" fill="white"/>
<path d="M112.649 19.4774C109.958 19.4774 108.612 18.1411 108.612 15.282V6.50472C108.608 6.4273 108.62 6.34981 108.647 6.27708C108.674 6.20436 108.716 6.13798 108.77 6.08209C108.824 6.0262 108.889 5.98201 108.961 5.95227C109.033 5.92253 109.111 5.90789 109.189 5.90927H111.285C111.361 5.90804 111.437 5.92201 111.507 5.95036C111.578 5.97871 111.642 6.02085 111.696 6.07428C111.75 6.12771 111.792 6.19134 111.821 6.26138C111.849 6.33142 111.863 6.40645 111.862 6.482V9.59109H114.476C114.552 9.58986 114.627 9.60383 114.698 9.63218C114.768 9.66053 114.832 9.70267 114.886 9.7561C114.94 9.80953 114.982 9.87315 115.011 9.9432C115.04 10.0132 115.054 10.0883 115.052 10.1638V11.2684C115.054 11.3439 115.04 11.4189 115.011 11.489C114.982 11.559 114.94 11.6226 114.886 11.6761C114.832 11.7295 114.768 11.7716 114.698 11.8C114.627 11.8283 114.552 11.8423 114.476 11.8411H111.862V15.2593C111.862 16.5547 112.535 17.2411 113.514 17.2411C114.013 17.2411 114.38 17.1275 114.801 17.1275H115.148C115.227 17.1267 115.304 17.1419 115.376 17.1722C115.448 17.2025 115.513 17.2472 115.566 17.3035C115.62 17.3598 115.661 17.4265 115.688 17.4995C115.715 17.5724 115.726 17.65 115.721 17.7275V18.7184C115.707 18.8658 115.642 19.0039 115.537 19.1086C115.431 19.2132 115.292 19.2778 115.144 19.2911C114.318 19.423 113.482 19.4869 112.645 19.482" fill="white"/>
<path d="M55.3068 29.7093C55.3068 29.4766 55.3998 29.2535 55.5655 29.089C55.7312 28.9245 55.9559 28.832 56.1902 28.832H63.8158C66.2188 28.832 68.695 29.8638 68.695 32.6275C68.7042 33.11 68.5933 33.5874 68.3722 34.0172C68.151 34.4469 67.8264 34.8158 67.4272 35.0911C67.9931 35.3825 68.4637 35.828 68.7839 36.3754C69.1041 36.9228 69.2606 37.5495 69.2352 38.182C69.2352 40.8366 66.8916 42.1911 64.2597 42.1911H56.1902C55.9559 42.1911 55.7312 42.0987 55.5655 41.9342C55.3998 41.7697 55.3068 41.5465 55.3068 41.3138V29.7093ZM58.8449 31.3638V34.0366H63.8798C64.2367 34.0366 64.579 33.8958 64.8314 33.6452C65.0838 33.3945 65.2255 33.0546 65.2255 32.7002C65.2255 32.3458 65.0838 32.0059 64.8314 31.7553C64.579 31.5046 64.2367 31.3638 63.8798 31.3638H58.8449ZM58.8449 36.4775V39.682H64.2048C65.2027 39.682 65.7016 39.032 65.7016 38.0775C65.7016 37.1229 65.2027 36.4729 64.2048 36.4729L58.8449 36.4775Z" fill="white"/>
<path d="M72.4114 32.4547C73.1987 29.4956 75.9084 28.8184 78.6364 28.8184H83.6713C83.8927 28.8267 84.1017 28.9217 84.2527 29.0827C84.4037 29.2437 84.4843 29.4576 84.4769 29.6774V41.3138C84.4733 41.5437 84.3785 41.7629 84.213 41.9237C84.0476 42.0846 83.825 42.1741 83.5935 42.1729H81.8267C81.7102 42.1747 81.5945 42.1533 81.4864 42.1099C81.3784 42.0664 81.2803 42.0019 81.1979 41.9201C81.1155 41.8382 81.0505 41.7408 81.0068 41.6335C80.963 41.5262 80.9414 41.4113 80.9433 41.2956V38.9593H74.2926L73.661 41.3047C73.5926 41.5488 73.4481 41.7652 73.2483 41.9228C73.0485 42.0804 72.8036 42.1711 72.5487 42.182H70.7178C70.6079 42.1969 70.4959 42.1832 70.3929 42.1423C70.2899 42.1013 70.1993 42.0345 70.1301 41.9484C70.0609 41.8622 70.0154 41.7597 69.9981 41.6509C69.9808 41.542 69.9922 41.4306 70.0313 41.3274L72.4114 32.4547ZM74.9884 36.3274H80.9616V31.4638H78.2702C77.7048 31.4483 77.1511 31.625 76.7007 31.9648C76.2504 32.3045 75.9304 32.7869 75.7939 33.332L74.9884 36.3274Z" fill="white"/>
<path d="M90.7213 37.3002V41.3048C90.7213 41.42 90.6984 41.534 90.654 41.6405C90.6096 41.7469 90.5446 41.8436 90.4625 41.9251C90.3805 42.0065 90.2831 42.0712 90.1759 42.1153C90.0688 42.1593 89.9539 42.182 89.8379 42.182H88.0711C87.8393 42.1741 87.6193 42.0791 87.4553 41.9163C87.2913 41.7535 87.1957 41.5349 87.1877 41.3048V29.7093C87.1853 29.595 87.2058 29.4813 87.2482 29.375C87.2906 29.2686 87.3539 29.1718 87.4345 29.09C87.5151 29.0083 87.6113 28.9434 87.7174 28.8991C87.8236 28.8548 87.9376 28.832 88.0528 28.832H95.7974C98.6032 28.832 100.695 30.4366 100.695 33.0684C100.695 35.1275 99.0975 36.082 97.1614 36.4639C97.9487 36.7502 98.5346 37.4184 99.2944 38.6184L101.006 41.3093C101.313 41.8048 101.18 42.1866 100.681 42.1866H98.411C98.1195 42.1582 97.8383 42.0645 97.5885 41.9125C97.3388 41.7606 97.127 41.5543 96.9692 41.3093L95.3763 38.8275C94.8957 38.082 94.2045 37.3002 92.9916 37.3002H90.7213ZM90.7213 31.4593V34.6639H94.7172C95.7928 34.6639 97.1568 34.282 97.1568 33.0593C97.1568 31.8366 95.7837 31.4548 94.7172 31.4548L90.7213 31.4593Z" fill="white"/>
<path d="M102.713 29.7093C102.713 29.4766 102.806 29.2535 102.971 29.089C103.137 28.9245 103.362 28.832 103.596 28.832H111.226C113.629 28.832 116.106 29.8638 116.106 32.6275C116.114 33.11 116.003 33.5872 115.782 34.0169C115.561 34.4466 115.237 34.8156 114.838 35.0911C115.404 35.3825 115.874 35.828 116.194 36.3754C116.515 36.9228 116.671 37.5495 116.646 38.182C116.646 40.8366 114.302 42.1911 111.67 42.1911H103.596C103.362 42.1911 103.137 42.0987 102.971 41.9342C102.806 41.7697 102.713 41.5465 102.713 41.3138V29.7093ZM106.251 31.3638V34.0366H111.286C111.643 34.0366 111.985 33.8958 112.237 33.6452C112.49 33.3945 112.631 33.0546 112.631 32.7002C112.631 32.3458 112.49 32.0059 112.237 31.7553C111.985 31.5046 111.643 31.3638 111.286 31.3638H106.251ZM106.251 36.4775V39.682H111.611C112.609 39.682 113.107 39.032 113.107 38.0775C113.107 37.1229 112.609 36.4729 111.611 36.4729L106.251 36.4775Z" fill="white"/>
<path d="M131.151 29.7092V30.5865C131.152 30.7019 131.13 30.8162 131.085 30.9229C131.041 31.0296 130.976 31.1266 130.894 31.2082C130.812 31.2897 130.714 31.3543 130.607 31.3982C130.499 31.4421 130.384 31.4644 130.268 31.4638H122.102V34.191H129.133C129.365 34.199 129.585 34.2939 129.749 34.4568C129.913 34.6196 130.008 34.8382 130.016 35.0683V35.9092C130.016 36.1449 129.924 36.3715 129.76 36.5411C129.595 36.7107 129.37 36.8101 129.133 36.8183H122.102V39.5456H130.25C130.363 39.545 130.476 39.5668 130.581 39.6098C130.687 39.6527 130.782 39.716 130.863 39.7959C130.943 39.8758 131.007 39.9707 131.05 40.0752C131.093 40.1797 131.115 40.2917 131.115 40.4047V41.3138C131.115 41.5464 131.022 41.7696 130.856 41.9341C130.69 42.0986 130.466 42.191 130.231 42.191H119.466C119.347 42.1905 119.23 42.1664 119.121 42.1201C119.012 42.0738 118.913 42.0063 118.831 41.9216C118.749 41.8368 118.684 41.7366 118.642 41.6267C118.599 41.5169 118.579 41.3996 118.582 41.282V29.6865C118.586 29.4566 118.681 29.2374 118.846 29.0766C119.012 28.9157 119.234 28.8262 119.466 28.8274H130.268C130.502 28.8274 130.727 28.9198 130.893 29.0844C131.058 29.2489 131.151 29.472 131.151 29.7047" fill="white"/>
<path d="M139.07 28.7546H141.162C143.775 28.7546 146.563 30.1455 146.563 32.8455C146.572 32.9769 146.555 33.1088 146.511 33.2331C146.467 33.3574 146.397 33.4714 146.307 33.5681C146.217 33.6648 146.108 33.7421 145.987 33.7953C145.865 33.8485 145.734 33.8764 145.602 33.8773H144.49C143.949 33.8773 143.51 33.6273 143.144 32.8455C142.96 32.3976 142.641 32.0166 142.232 31.7541C141.823 31.4915 141.342 31.36 140.855 31.3773H139.148C136.402 31.3773 135.633 32.3864 135.633 35.5001C135.633 38.6137 136.402 39.6273 139.148 39.6273H141.011C141.498 39.6447 141.978 39.5132 142.388 39.2506C142.797 38.988 143.115 38.6071 143.299 38.1591C143.666 37.3773 144.105 37.1319 144.645 37.1319H145.757C145.89 37.1328 146.02 37.1606 146.141 37.2135C146.262 37.2664 146.371 37.3433 146.461 37.4395C146.551 37.5357 146.621 37.6492 146.665 37.7729C146.709 37.8967 146.727 38.0281 146.719 38.1591C146.719 40.8864 143.931 42.2501 141.322 42.2501H139.034C134.456 42.2501 132.076 40.1319 132.076 35.4955C132.076 30.8591 134.438 28.741 139.034 28.741" fill="white"/>
<path d="M155.905 39.6273C157.612 39.6273 158.381 38.7501 158.381 36.9001V29.7091C158.381 29.5916 158.404 29.4752 158.449 29.3667C158.495 29.2582 158.562 29.1599 158.646 29.0777C158.731 28.9954 158.831 28.9309 158.941 28.8879C159.051 28.8449 159.169 28.8243 159.287 28.8273H161.036C161.154 28.8237 161.273 28.8437 161.383 28.886C161.494 28.9284 161.595 28.9924 161.68 29.0742C161.765 29.1559 161.833 29.2539 161.88 29.3621C161.927 29.4704 161.951 29.5868 161.951 29.7046V36.9001C161.951 40.2773 159.951 42.2637 156.033 42.2637H154.344C150.421 42.2637 148.426 40.2819 148.426 36.9001V29.7091C148.426 29.5914 148.451 29.4749 148.497 29.3667C148.544 29.2584 148.612 29.1605 148.697 29.0787C148.782 28.997 148.883 28.933 148.994 28.8906C149.105 28.8482 149.223 28.8282 149.341 28.8319H151.049C151.283 28.8319 151.508 28.9243 151.673 29.0888C151.839 29.2533 151.932 29.4765 151.932 29.7091V36.9182C151.932 38.7364 152.701 39.6455 154.413 39.6455L155.905 39.6273Z" fill="white"/>
<path d="M177.001 29.7092V30.5865C177.001 30.8192 176.908 31.0423 176.742 31.2068C176.577 31.3713 176.352 31.4638 176.118 31.4638H167.952V34.191H174.983C175.214 34.199 175.434 34.2939 175.598 34.4568C175.762 34.6196 175.858 34.8382 175.866 35.0683V35.9092C175.866 36.1449 175.774 36.3715 175.609 36.5411C175.444 36.7107 175.22 36.8101 174.983 36.8183H167.952V39.5456H176.099C176.213 39.545 176.326 39.5668 176.431 39.6098C176.536 39.6527 176.632 39.716 176.712 39.7959C176.793 39.8758 176.857 39.9707 176.9 40.0752C176.943 40.1797 176.965 40.2917 176.964 40.4047V41.3138C176.964 41.5464 176.871 41.7696 176.706 41.9341C176.54 42.0986 176.315 42.191 176.081 42.191H165.302C165.183 42.1905 165.066 42.1664 164.957 42.1201C164.848 42.0738 164.749 42.0063 164.667 41.9216C164.585 41.8368 164.52 41.7366 164.478 41.6267C164.435 41.5169 164.415 41.3996 164.418 41.282V29.6865C164.422 29.4566 164.517 29.2374 164.682 29.0766C164.848 28.9157 165.07 28.8262 165.302 28.8274H176.118C176.352 28.8274 176.577 28.9198 176.742 29.0844C176.908 29.2489 177.001 29.472 177.001 29.7047" fill="white"/>
</g>
<defs>
<clipPath id="clip0_4_2215">
<rect width="177" height="48" fill="white"/>
</clipPath>
</defs>
</svg>
