<svg width="24" height="18" viewBox="0 0 24 18" fill="none" xmlns="http://www.w3.org/2000/svg">
<path d="M3 0V2.74219L0.75 5.74219V6C0.75 7.2334 1.7666 8.25 3 8.25V18H15V11.25H16.5V18H21V8.25C22.2334 8.25 23.25 7.2334 23.25 6V5.74219L21 2.74219V0H3ZM4.5 1.5H19.5V2.25H4.5V1.5ZM4.125 3.75H19.875L21.6797 6.16406C21.5977 6.48926 21.3516 6.75 21 6.75C20.584 6.75 20.25 6.41602 20.25 6H18.75C18.75 6.41602 18.416 6.75 18 6.75C17.584 6.75 17.25 6.41602 17.25 6H15.75C15.75 6.41602 15.416 6.75 15 6.75C14.584 6.75 14.25 6.41602 14.25 6H12.75C12.75 6.41602 12.416 6.75 12 6.75C11.584 6.75 11.25 6.41602 11.25 6H9.75C9.75 6.41602 9.41602 6.75 9 6.75C8.58398 6.75 8.25 6.41602 8.25 6H6.75C6.75 6.41602 6.41602 6.75 6 6.75C5.58398 6.75 5.25 6.41602 5.25 6H3.75C3.75 6.41602 3.41602 6.75 3 6.75C2.64844 6.75 2.40234 6.48926 2.32031 6.16406L4.125 3.75ZM4.5 7.66406C4.89844 8.02441 5.42578 8.25 6 8.25C6.57422 8.25 7.10156 8.02441 7.5 7.66406C7.89844 8.02441 8.42578 8.25 9 8.25C9.57422 8.25 10.1016 8.02441 10.5 7.66406C10.8984 8.02441 11.4258 8.25 12 8.25C12.5742 8.25 13.1016 8.02441 13.5 7.66406C13.8984 8.02441 14.4258 8.25 15 8.25C15.5742 8.25 16.1016 8.02441 16.5 7.66406C16.8984 8.02441 17.4258 8.25 18 8.25C18.5742 8.25 19.1016 8.02441 19.5 7.66406V16.5H18V9.75H13.5V16.5H4.5V7.66406ZM6 9.75V15H12V9.75H6ZM7.5 11.25H10.5V13.5H7.5V11.25Z" fill="black"/>
</svg>
