<svg width="48" height="32" viewBox="0 0 48 32" fill="none" xmlns="http://www.w3.org/2000/svg">
<rect x="1.16663" y="0.5" width="45.6667" height="31" rx="5.5" fill="white" stroke="#D9D9D9"/>
<path fill-rule="evenodd" clip-rule="evenodd" d="M24.3333 22.876C22.7445 24.247 20.6837 25.0747 18.4317 25.0747C13.4068 25.0747 9.33331 20.9539 9.33331 15.8707C9.33331 10.7875 13.4068 6.66675 18.4317 6.66675C20.6837 6.66675 22.7445 7.49442 24.3333 8.86545C25.9221 7.49442 27.983 6.66675 30.2349 6.66675C35.2598 6.66675 39.3333 10.7875 39.3333 15.8707C39.3333 20.9539 35.2598 25.0747 30.2349 25.0747C27.983 25.0747 25.9221 24.247 24.3333 22.876Z" fill="#ED0006"/>
<path fill-rule="evenodd" clip-rule="evenodd" d="M24.3333 22.876C26.2896 21.1878 27.53 18.6758 27.53 15.8707C27.53 13.0656 26.2896 10.5536 24.3333 8.86545C25.9221 7.49442 27.983 6.66675 30.2349 6.66675C35.2598 6.66675 39.3333 10.7875 39.3333 15.8707C39.3333 20.9539 35.2598 25.0747 30.2349 25.0747C27.983 25.0747 25.9221 24.247 24.3333 22.876Z" fill="#F9A000"/>
<path fill-rule="evenodd" clip-rule="evenodd" d="M24.3333 22.876C26.2896 21.1878 27.53 18.6758 27.53 15.8707C27.53 13.0656 26.2896 10.5537 24.3333 8.86548C22.3771 10.5537 21.1367 13.0656 21.1367 15.8707C21.1367 18.6758 22.3771 21.1878 24.3333 22.876Z" fill="#FF5E00"/>
</svg>
