<svg width="32" height="32" viewBox="0 0 32 32" fill="none" xmlns="http://www.w3.org/2000/svg">
<path d="M8.65616 3C8.13272 3 7.6171 3.1875 7.18741 3.53125L7.12491 3.5625L7.09366 3.59375L3.96866 6.8125L3.99991 6.84375C3.03506 7.73438 2.73819 9.06641 3.15616 10.2188C3.16006 10.2266 3.15225 10.2422 3.15616 10.25C4.00381 12.6758 6.17178 17.3594 10.4062 21.5938C14.6562 25.8438 19.4023 27.9258 21.7499 28.8438H21.7812C22.996 29.25 24.3124 28.9609 25.2499 28.1562L28.4062 25C29.2343 24.1719 29.2343 22.7344 28.4062 21.9062L24.3437 17.8438L24.3124 17.7812C23.4843 16.9531 22.0155 16.9531 21.1874 17.7812L19.1874 19.7812C18.4648 19.4336 16.7421 18.543 15.0937 16.9688C13.4569 15.4062 12.621 13.6094 12.3124 12.9062L14.3124 10.9062C15.1523 10.0664 15.1679 8.66797 14.2812 7.84375L14.3124 7.8125L14.2187 7.71875L10.2187 3.59375L10.1874 3.5625L10.1249 3.53125C9.69522 3.1875 9.1796 3 8.65616 3ZM8.65616 5C8.73038 5 8.8046 5.03516 8.87491 5.09375L12.8749 9.1875L12.9687 9.28125C12.9608 9.27344 13.0273 9.37891 12.9062 9.5L10.4062 12L9.93741 12.4375L10.1562 13.0625C10.1562 13.0625 11.3046 16.1367 13.7187 18.4375L13.9374 18.625C16.2616 20.7461 18.9999 21.9062 18.9999 21.9062L19.6249 22.1875L22.5937 19.2188C22.7655 19.0469 22.7343 19.0469 22.9062 19.2188L26.9999 23.3125C27.1718 23.4844 27.1718 23.4219 26.9999 23.5938L23.9374 26.6562C23.4765 27.0508 22.9882 27.1328 22.4062 26.9375C20.1405 26.0469 15.7382 24.1133 11.8124 20.1875C7.85538 16.2305 5.78897 11.7422 5.03116 9.5625C4.87881 9.15625 4.98819 8.55469 5.34366 8.25L5.40616 8.1875L8.43741 5.09375C8.50772 5.03516 8.58194 5 8.65616 5Z" fill="white"/>
</svg>
