<svg width="24" height="24" viewBox="0 0 24 24" fill="none" xmlns="http://www.w3.org/2000/svg">
<path d="M12.0703 3C8.26256 3 4.5 5.5375 4.5 9.646C4.5 12.2582 5.96886 13.7432 6.85986 13.7432C7.22736 13.7432 7.43994 12.7187 7.43994 12.4292C7.43994 12.0842 6.55957 11.3488 6.55957 9.9126C6.55957 6.9291 8.83077 4.81494 11.77 4.81494C14.2975 4.81494 16.1675 6.25017 16.1675 8.88867C16.1675 10.8589 15.3764 14.5547 12.8159 14.5547C11.8919 14.5547 11.1021 13.8872 11.1021 12.9302C11.1021 11.5277 12 10.1692 12 8.72168C12 6.26468 8.59717 6.71044 8.59717 9.67969C8.59717 10.3029 8.67487 10.9928 8.95312 11.5605C8.44163 13.7648 7.5 17.2781 7.5 19.5498C7.5 20.2511 7.60024 20.9411 7.66699 21.6431C7.79299 21.7841 7.73059 21.7692 7.92334 21.6987C9.79384 19.1382 9.62031 18.4081 10.4663 15.0571C10.9231 15.9256 12.1033 16.3931 13.0386 16.3931C16.9798 16.3931 18.75 12.5521 18.75 9.08936C18.75 5.4046 15.5661 3 12.0703 3Z" fill="white"/>
</svg>
