<svg width="25" height="24" viewBox="0 0 25 24" fill="none" xmlns="http://www.w3.org/2000/svg">
<g clip-path="url(#clip0_4_2237)">
<path d="M14.6236 2C10.3374 2 6.84717 5.49028 6.84717 9.77643C6.84717 11.6385 7.50027 13.3457 8.59687 14.6853L2.40002 20.8821L3.51789 22L9.71473 15.8032C11.0543 16.8998 12.7615 17.5529 14.6236 17.5529C18.9097 17.5529 22.4 14.0626 22.4 9.77643C22.4 5.49028 18.9097 2 14.6236 2ZM14.6236 3.55529C18.0683 3.55529 20.8447 6.33171 20.8447 9.77643C20.8447 13.2211 18.0683 15.9976 14.6236 15.9976C11.1789 15.9976 8.40245 13.2211 8.40245 9.77643C8.40245 6.33171 11.1789 3.55529 14.6236 3.55529Z" fill="white"/>
</g>
<defs>
<clipPath id="clip0_4_2237">
<rect width="24" height="24" fill="white" transform="translate(0.400024)"/>
</clipPath>
</defs>
</svg>
