<svg width="24" height="24" viewBox="0 0 24 24" fill="none" xmlns="http://www.w3.org/2000/svg">
<path d="M12 6C12 6 6.35481 5.99879 4.96624 6.37165C4.19481 6.59022 3.57737 7.19451 3.37165 7.97879C2.99879 9.38022 3 12.3382 3 12.3382C3 12.3382 2.99879 15.2958 3.37165 16.7101C3.57737 17.4815 4.19481 18.0739 4.96624 18.2796C6.35481 18.6524 12 18.6512 12 18.6512C12 18.6512 17.6452 18.6524 19.0338 18.2796C19.8052 18.061 20.4226 17.4818 20.6283 16.6975C21.0012 15.2961 21 12.3382 21 12.3382C21 12.3382 21.0012 9.39308 20.6283 7.97879C20.4226 7.19451 19.8052 6.59022 19.0338 6.37165C17.6452 5.99879 12 6 12 6ZM9.42857 8.66936L15.8571 12.3407L9.42857 15.9944V8.66936Z" fill="white"/>
</svg>
